<?xml version="1.0" encoding="UTF-8"?>
<svg id="_图层_1" data-name="图层 1" xmlns="http://www.w3.org/2000/svg" viewBox="0 0 76.63 76.63">
  <defs>
    <style>
      .cls-1 {
        fill: #2c2c2c;
      }

      .cls-2 {
        fill: #fff;
        stroke: #ccc;
        stroke-miterlimit: 10;
        stroke-width: 3px;
      }
    </style>
  </defs>
  <circle class="cls-2" cx="38.31" cy="38.31" r="36.81"/>
  <path class="cls-1" d="M18.78,38.64c-.03-2.29,.29-4.58,.97-6.82,3.49-11.4,15.3-17.9,26.38-14.51,11.09,3.39,17.24,15.38,13.76,26.79-3.49,11.4-15.3,17.9-26.38,14.51-3.29-1.01-6.22-2.79-8.6-5.21-.56-.57-.56-1.49,0-2.07,.56-.57,1.48-.58,2.03-.01,2.05,2.08,4.57,3.62,7.41,4.49,9.56,2.92,19.76-2.69,22.78-12.55,3.02-9.86-2.3-20.22-11.87-23.15-9.56-2.92-19.77,2.69-22.78,12.55-.61,2-.89,4.05-.84,6.08l3.57-3.57c.55-.55,1.44-.53,2,.03,.56,.56,.57,1.46,.03,2l-5.59,5.59c-.07,.15-.16,.3-.29,.43-.55,.55-1.44,.53-2-.03l-6.1-6.1c-.56-.56-.57-1.46-.03-2,.55-.55,1.44-.53,2,.03l3.52,3.52Zm0,0"/>
</svg>